<svg width="18" height="18" viewBox="0 0 18 18" fill="none" xmlns="http://www.w3.org/2000/svg">
<path fill-rule="evenodd" clip-rule="evenodd" d="M11.71 11.2549H12.5L17.49 16.2549L16 17.7449L11 12.7549V11.9649L10.73 11.6849C9.59 12.6649 8.11 13.2549 6.5 13.2549C2.91 13.2549 0 10.3449 0 6.75488C0 3.16488 2.91 0.254883 6.5 0.254883C10.09 0.254883 13 3.16488 13 6.75488C13 8.36488 12.41 9.84488 11.43 10.9849L11.71 11.2549ZM2 6.75488C2 9.24488 4.01 11.2549 6.5 11.2549C8.99 11.2549 11 9.24488 11 6.75488C11 4.26488 8.99 2.25488 6.5 2.25488C4.01 2.25488 2 4.26488 2 6.75488Z" fill="white" fill-opacity="0.54"/>
</svg>
