<svg width="15" height="20" viewBox="0 0 23 24" fill="none" xmlns="http://www.w3.org/2000/svg">
<path fill-rule="evenodd" clip-rule="evenodd" d="M19.69 4V8.69L23 12L19.69 15.31V20H15L11.69 23.31L8.38 20H3.69V15.31L0.380005 12L3.69 8.69V4H8.38L11.69 0.690002L15 4H19.69ZM9.19001 17.45C9.95001 17.8 10.8 18 11.69 18C15 18 17.69 15.31 17.69 12C17.69 8.69 15 6 11.69 6C10.8 6 9.95001 6.2 9.19001 6.55C11.25 7.5 12.69 9.58 12.69 12C12.69 14.42 11.25 16.5 9.19001 17.45Z" fill="black" fill-opacity="0.54"/>
</svg>
